<!DOCTYPE svg PUBLIC "-//W3C//DTD SVG 1.1//EN" "http://www.w3.org/Graphics/SVG/1.1/DTD/svg11.dtd">
<!-- Uploaded to: SVG Repo, www.svgrepo.com, Transformed by: SVG Repo Mixer Tools -->
<svg fill="#3b65b1" height="800px" width="800px" version="1.1" id="Layer_1" xmlns="http://www.w3.org/2000/svg" xmlns:xlink="http://www.w3.org/1999/xlink" viewBox="0 0 511.893 511.893" xml:space="preserve" stroke="#3b65b1">
<g id="SVGRepo_bgCarrier" stroke-width="0"/>
<g id="SVGRepo_tracerCarrier" stroke-linecap="round" stroke-linejoin="round"/>
<g id="SVGRepo_iconCarrier"> <g> <g> <path d="M467.627,85.334h-136.96V59.52c0-16.427-9.6-27.52-23.893-27.52H205.227c-14.293,0-23.893,11.093-23.893,27.52v25.813 H44.373C19.84,85.334,0,105.174,0,129.707V435.52c0,24.533,19.84,44.373,44.373,44.373H467.52 c24.533,0,44.373-19.84,44.373-44.373V129.707C512,105.174,492.16,85.334,467.627,85.334z M202.667,59.52 c0-6.187,1.92-6.187,2.56-6.187h101.547c0.747,0,2.56,0,2.56,6.187v25.813H202.667V59.52z M64,458.667H44.373 c-12.693,0-23.04-10.347-23.04-23.04v-305.92c0-12.693,10.347-23.04,23.04-23.04H64V458.667z M85.333,458.667v-352h21.333v352 H85.333z M384,458.667H128v-352h256V458.667z M426.667,458.667h-21.333v-352h21.333V458.667z M490.667,435.627L490.667,435.627 c0,12.693-10.347,23.04-23.04,23.04H448v-352h19.627c12.693,0,23.04,10.347,23.04,23.04V435.627z"/> </g> </g> </g>
</svg>