<!DOCTYPE svg PUBLIC "-//W3C//DTD SVG 1.1//EN" "http://www.w3.org/Graphics/SVG/1.1/DTD/svg11.dtd">
<!-- Uploaded to: SVG Repo, www.svgrepo.com, Transformed by: SVG Repo Mixer Tools -->
<svg width="800px" height="800px" viewBox="0 0 73.701 73.701" enable-background="new 0 0 73.701 73.701" id="圖層_1" version="1.1" xml:space="preserve" xmlns="http://www.w3.org/2000/svg" xmlns:xlink="http://www.w3.org/1999/xlink" fill="#3b65b1">
<g id="SVGRepo_bgCarrier" stroke-width="0"/>
<g id="SVGRepo_tracerCarrier" stroke-linecap="round" stroke-linejoin="round"/>
<g id="SVGRepo_iconCarrier"> <g> <path d=" M23.997,23.997L12.101,12.103c6.335-6.334,15.086-10.252,24.75-10.252v16.822C31.831,18.673,27.286,20.708,23.997,23.997z" fill="#FFFFFF" stroke="#3b65b1" stroke-linecap="round" stroke-linejoin="round" stroke-miterlimit="10" stroke-width="3"/> <path d=" M36.851,18.673V1.851c9.665,0,18.415,3.918,24.748,10.252L49.704,23.997C46.415,20.708,41.871,18.673,36.851,18.673z" fill="#FFFFFF" stroke="#3b65b1" stroke-linecap="round" stroke-linejoin="round" stroke-miterlimit="10" stroke-width="3"/> <path d=" M55.028,36.851c0-5.02-2.035-9.564-5.324-12.854l11.895-11.895c6.334,6.334,10.252,15.084,10.252,24.748l0,0H55.028L55.028,36.851z " fill="#FFFFFF" stroke="#3b65b1" stroke-linecap="round" stroke-linejoin="round" stroke-miterlimit="10" stroke-width="3"/> <path d=" M18.673,36.851L18.673,36.851H1.851c0-9.664,3.918-18.414,10.25-24.748l11.896,11.895C20.708,27.286,18.673,31.831,18.673,36.851z" fill="#FFFFFF" stroke="#3b65b1" stroke-linecap="round" stroke-linejoin="round" stroke-miterlimit="10" stroke-width="3"/> <path d=" M36.851,55.028v16.822c-9.664,0-18.415-3.918-24.75-10.251l11.896-11.896C27.286,52.994,31.831,55.028,36.851,55.028z" fill="#FFFFFF" stroke="#3b65b1" stroke-linecap="round" stroke-linejoin="round" stroke-miterlimit="10" stroke-width="3"/> <path d=" M55.028,36.851h16.822c0,9.666-3.918,18.415-10.252,24.749L49.704,49.704C52.993,46.415,55.028,41.87,55.028,36.851z" fill="#FFFFFF" stroke="#3b65b1" stroke-linecap="round" stroke-linejoin="round" stroke-miterlimit="10" stroke-width="3"/> <path d=" M1.851,36.851h16.822c0,5.02,2.035,9.564,5.324,12.854L12.101,61.6C5.769,55.266,1.851,46.517,1.851,36.851L1.851,36.851z" fill="#FFFFFF" stroke="#3b65b1" stroke-linecap="round" stroke-linejoin="round" stroke-miterlimit="10" stroke-width="3"/> <path d=" M49.704,49.704L61.599,61.6c-6.333,6.333-15.083,10.251-24.748,10.251V55.028C41.871,55.028,46.415,52.994,49.704,49.704z" fill="#FFFFFF" stroke="#3b65b1" stroke-linecap="round" stroke-linejoin="round" stroke-miterlimit="10" stroke-width="3"/> <path d=" M23.997,23.997c3.289-3.289,7.834-5.324,12.854-5.324c5.02,0,9.564,2.035,12.854,5.324s5.324,7.834,5.324,12.854l0,0 c0,5.02-2.035,9.564-5.324,12.854c-3.289,3.29-7.833,5.324-12.854,5.324c-5.02,0-9.564-2.034-12.854-5.324 c-3.289-3.289-5.324-7.834-5.324-12.854S20.708,27.286,23.997,23.997z" fill="none" stroke="#3b65b1" stroke-linecap="round" stroke-linejoin="round" stroke-miterlimit="10" stroke-width="3"/> </g> </g>
</svg>