<!DOCTYPE svg PUBLIC "-//W3C//DTD SVG 1.1//EN" "http://www.w3.org/Graphics/SVG/1.1/DTD/svg11.dtd">
<!-- Uploaded to: SVG Repo, www.svgrepo.com, Transformed by: SVG Repo Mixer Tools -->
<svg version="1.1" id="Capa_1" xmlns="http://www.w3.org/2000/svg" xmlns:xlink="http://www.w3.org/1999/xlink" width="800px" height="800px" viewBox="0 0 300.458 300.459" xml:space="preserve" fill="#000000">
<g id="SVGRepo_bgCarrier" stroke-width="0"/>
<g id="SVGRepo_tracerCarrier" stroke-linecap="round" stroke-linejoin="round"/>
<g id="SVGRepo_iconCarrier"> <g> <g> <path style="fill:#3b65b1;" d="M45.544,300.453L0,254.914l143.608-143.602l-7.262-7.265l21.985-82.057l82.065-21.986l11.87,11.885 l-26.108,26.108l7.674,28.633l28.642,7.676L288.583,48.2l11.876,11.879l-21.991,82.045l-82.06,21.988l-7.256-7.262L45.544,300.453 z M16.559,254.903l28.985,28.99l143.608-143.608l10.762,10.768l68.993-18.492l17.623-65.771l-20.562,20.57l-41.695-11.173 l-11.173-41.696l20.567-20.568l-65.774,17.623l-18.483,68.999l10.765,10.762L16.559,254.903z"/> </g> </g> </g>
</svg>